<?xml version="1.0" encoding="UTF-8" standalone="no"?>
<svg
   xmlns:dc="http://purl.org/dc/elements/1.1/"
   xmlns:cc="http://creativecommons.org/ns#"
   xmlns:rdf="http://www.w3.org/1999/02/22-rdf-syntax-ns#"
   xmlns:svg="http://www.w3.org/2000/svg"
   xmlns="http://www.w3.org/2000/svg"
   xmlns:sodipodi="http://sodipodi.sourceforge.net/DTD/sodipodi-0.dtd"
   xmlns:inkscape="http://www.inkscape.org/namespaces/inkscape"
   version="1.1"
   id="Capa_1"
   x="0px"
   y="0px"
   width="15mm"
   height="15mm"
   viewBox="0 0 50.968039 50.967928"
   xml:space="preserve"
   class=""
   sodipodi:docname="home.svg"
   inkscape:version="0.92.2 (5c3e80d, 2017-08-06)"><metadata
     id="metadata17"><rdf:RDF><cc:Work
         rdf:about=""><dc:format>image/svg+xml</dc:format><dc:type
           rdf:resource="http://purl.org/dc/dcmitype/StillImage" /><dc:title></dc:title></cc:Work></rdf:RDF></metadata><defs
     id="defs15" /><sodipodi:namedview
     pagecolor="#ffffff"
     bordercolor="#666666"
     borderopacity="1"
     objecttolerance="10"
     gridtolerance="10"
     guidetolerance="10"
     inkscape:pageopacity="0"
     inkscape:pageshadow="2"
     inkscape:window-width="1920"
     inkscape:window-height="1017"
     id="namedview13"
     showgrid="false"
     units="mm"
     inkscape:zoom="7.375"
     inkscape:cx="62.108496"
     inkscape:cy="19.346133"
     inkscape:window-x="-8"
     inkscape:window-y="-8"
     inkscape:window-maximized="1"
     inkscape:current-layer="Capa_1" /><path
     style="fill:#ffffff;stroke-width:0.90083259"
     d="M -0.01171875 -0.1484375 L -0.01171875 56.841797 L 56.705078 56.841797 L 56.705078 -0.1484375 L -0.01171875 -0.1484375 z M 28.345703 0.90625 C 29.335466 0.90625 30.193183 1.2780849 30.912109 2.0195312 L 39.140625 10.746094 L 39.140625 2.4042969 C 39.140625 2.005483 39.243129 1.6767088 39.445312 1.4199219 C 39.647968 1.1634345 39.907624 1.0351562 40.222656 1.0351562 L 46.699219 1.0351562 C 47.014605 1.0351562 47.273253 1.1634345 47.474609 1.4199219 C 47.677613 1.6767088 47.779297 2.0053332 47.779297 2.4042969 L 47.779297 19.857422 L 55.166016 27.640625 C 55.390415 27.868797 55.514062 28.174611 55.537109 28.558594 C 55.560506 28.943774 55.482584 29.278902 55.302734 29.564453 L 53.210938 32.730469 C 53.029789 32.986358 52.793942 33.144844 52.501953 33.201172 L 52.400391 33.201172 C 52.107929 33.201172 51.873681 33.101302 51.693359 32.902344 L 28.345703 8.2226562 L 5 32.902344 C 4.7299894 33.130371 4.4614168 33.23189 4.1914062 33.203125 C 3.898944 33.145745 3.6626258 32.988909 3.4824219 32.732422 L 1.390625 29.564453 C 1.2104209 29.2795 1.1314909 28.945277 1.1542969 28.560547 C 1.1772212 28.175515 1.3005197 27.868348 1.5253906 27.640625 L 25.783203 2.0195312 C 26.502836 1.2780849 27.356057 0.90625 28.345703 0.90625 z M 28.345703 11.984375 L 47.746094 32.261719 C 47.767851 32.317601 47.779297 32.403717 47.779297 32.517578 L 47.779297 53.048828 C 47.779297 53.790275 47.564127 54.432265 47.136719 54.972656 C 46.710018 55.515146 46.203829 55.787109 45.619141 55.787109 L 32.666016 55.787109 L 32.666016 39.359375 L 24.027344 39.359375 L 24.027344 55.787109 L 11.072266 55.787109 C 10.48746 55.787109 9.9819777 55.513947 9.5546875 54.972656 C 9.1272791 54.431666 8.9140625 53.790125 8.9140625 53.048828 L 8.9140625 32.517578 C 8.9140625 32.488219 8.9205285 32.445601 8.9316406 32.388672 C 8.9429885 32.331293 8.9492188 32.290339 8.9492188 32.261719 L 28.345703 11.984375 z "
     transform="matrix(0.89901958,0,0,0.89901958,0,-5.55e-5)"
     id="rect292" /></svg>