<?xml version="1.0" encoding="UTF-8" standalone="no"?><svg xmlns="http://www.w3.org/2000/svg" xmlns:xlink="http://www.w3.org/1999/xlink" contentScriptType="application/ecmascript" contentStyleType="text/css" height="504px" preserveAspectRatio="none" style="width:335px;height:504px;" version="1.1" viewBox="0 0 335 504" width="335px" zoomAndPan="magnify"><defs><filter height="300%" id="fg3kfb3zxeiu0" width="300%" x="-1" y="-1"><feGaussianBlur result="blurOut" stdDeviation="2.0"/><feColorMatrix in="blurOut" result="blurOut2" type="matrix" values="0 0 0 0 0 0 0 0 0 0 0 0 0 0 0 0 0 0 .4 0"/><feOffset dx="4.0" dy="4.0" in="blurOut2" result="blurOut3"/><feBlend in="SourceGraphic" in2="blurOut3" mode="normal"/></filter></defs><g><text fill="#000000" font-family="sans-serif" font-size="18" lengthAdjust="spacingAndGlyphs" textLength="321" x="2" y="16.708">Results-ng concepts &amp; dependencies</text><!--class Event--><rect fill="#FEFECE" filter="url(#fg3kfb3zxeiu0)" height="86.4141" id="Event" style="stroke: #A80036; stroke-width: 1.5;" width="78" x="6.5" y="48.4531"/><ellipse cx="26.45" cy="64.4531" fill="#ADD1B2" rx="11" ry="11" style="stroke: #A80036; stroke-width: 1.0;"/><path d="M28.7938,60.125 L28.9656,60.2031 C29.1844,59.8906 29.3875,59.7969 29.6844,59.7969 C29.9813,59.7969 30.2625,59.9375 30.4188,60.2031 C30.5125,60.3594 30.5281,60.4844 30.5281,60.9219 L30.5281,62.3438 C30.5281,62.7656 30.4969,62.9531 30.3875,63.1094 C30.2156,63.3281 29.95,63.4688 29.6844,63.4688 C29.4656,63.4688 29.2313,63.3594 29.0906,63.2188 C28.95,63.0938 28.9188,62.9688 28.8563,62.5625 C28.7625,62.1563 28.5906,61.9375 28.1063,61.6563 C27.6375,61.4063 27.0281,61.25 26.45,61.25 C24.7156,61.25 23.4656,62.5625 23.4656,64.3438 L23.4656,65.4375 C23.4656,67.1406 24.7625,68.2344 26.8094,68.2344 C27.575,68.2344 28.2625,68.1094 28.6844,67.8438 C28.8719,67.75 28.8719,67.75 29.325,67.2656 C29.5125,67.0781 29.7156,67 29.9344,67 C30.4031,67 30.7938,67.3906 30.7938,67.8438 C30.7938,68.2344 30.4656,68.6875 29.8875,69.0938 C29.1375,69.6406 27.9813,69.9375 26.7625,69.9375 C23.8719,69.9375 21.7625,68.0469 21.7625,65.4688 L21.7625,64.3438 C21.7625,61.625 23.7625,59.5469 26.3875,59.5469 C27.2625,59.5469 27.8563,59.6875 28.7938,60.125 Z "/><text fill="#000000" font-family="sans-serif" font-size="12" lengthAdjust="spacingAndGlyphs" textLength="35" x="41.55" y="68.6074">Event</text><line style="stroke: #A80036; stroke-width: 1.5;" x1="7.5" x2="83.5" y1="80.4531" y2="80.4531"/><ellipse cx="17.5" cy="92.3555" fill="none" rx="3" ry="3" style="stroke: #038048; stroke-width: 1.0;"/><text fill="#000000" font-family="sans-serif" font-size="11" lengthAdjust="spacingAndGlyphs" textLength="30" x="26.5" y="94.6636">str id</text><ellipse cx="17.5" cy="105.1602" fill="none" rx="3" ry="3" style="stroke: #038048; stroke-width: 1.0;"/><text fill="#000000" font-family="sans-serif" font-size="11" lengthAdjust="spacingAndGlyphs" textLength="45" x="26.5" y="107.4683">str date</text><ellipse cx="17.5" cy="117.9648" fill="none" rx="3" ry="3" style="stroke: #038048; stroke-width: 1.0;"/><text fill="#000000" font-family="sans-serif" font-size="11" lengthAdjust="spacingAndGlyphs" textLength="52" x="26.5" y="120.2729">str name</text><line style="stroke: #A80036; stroke-width: 1.5;" x1="7.5" x2="83.5" y1="126.8672" y2="126.8672"/><!--class Tag--><rect fill="#FEFECE" filter="url(#fg3kfb3zxeiu0)" height="124.8281" id="Tag" style="stroke: #A80036; stroke-width: 1.5;" width="76" x="149.5" y="28.9531"/><ellipse cx="173.95" cy="44.9531" fill="#ADD1B2" rx="11" ry="11" style="stroke: #A80036; stroke-width: 1.0;"/><path d="M176.2938,40.625 L176.4656,40.7031 C176.6844,40.3906 176.8875,40.2969 177.1844,40.2969 C177.4813,40.2969 177.7625,40.4375 177.9188,40.7031 C178.0125,40.8594 178.0281,40.9844 178.0281,41.4219 L178.0281,42.8438 C178.0281,43.2656 177.9969,43.4531 177.8875,43.6094 C177.7156,43.8281 177.45,43.9688 177.1844,43.9688 C176.9656,43.9688 176.7313,43.8594 176.5906,43.7188 C176.45,43.5938 176.4188,43.4688 176.3563,43.0625 C176.2625,42.6563 176.0906,42.4375 175.6063,42.1563 C175.1375,41.9063 174.5281,41.75 173.95,41.75 C172.2156,41.75 170.9656,43.0625 170.9656,44.8438 L170.9656,45.9375 C170.9656,47.6406 172.2625,48.7344 174.3094,48.7344 C175.075,48.7344 175.7625,48.6094 176.1844,48.3438 C176.3719,48.25 176.3719,48.25 176.825,47.7656 C177.0125,47.5781 177.2156,47.5 177.4344,47.5 C177.9031,47.5 178.2938,47.8906 178.2938,48.3438 C178.2938,48.7344 177.9656,49.1875 177.3875,49.5938 C176.6375,50.1406 175.4813,50.4375 174.2625,50.4375 C171.3719,50.4375 169.2625,48.5469 169.2625,45.9688 L169.2625,44.8438 C169.2625,42.125 171.2625,40.0469 173.8875,40.0469 C174.7625,40.0469 175.3563,40.1875 176.2938,40.625 Z "/><text fill="#000000" font-family="sans-serif" font-size="12" lengthAdjust="spacingAndGlyphs" textLength="23" x="190.05" y="49.1074">Tag</text><line style="stroke: #A80036; stroke-width: 1.5;" x1="150.5" x2="224.5" y1="60.9531" y2="60.9531"/><ellipse cx="160.5" cy="72.8555" fill="none" rx="3" ry="3" style="stroke: #038048; stroke-width: 1.0;"/><text fill="#000000" font-family="sans-serif" font-size="11" lengthAdjust="spacingAndGlyphs" textLength="30" x="169.5" y="75.1636">str id</text><ellipse cx="160.5" cy="85.6602" fill="none" rx="3" ry="3" style="stroke: #038048; stroke-width: 1.0;"/><text fill="#000000" font-family="sans-serif" font-size="11" lengthAdjust="spacingAndGlyphs" textLength="38" x="169.5" y="87.9683">str tag</text><ellipse cx="160.5" cy="98.4648" fill="none" rx="3" ry="3" style="stroke: #038048; stroke-width: 1.0;"/><text fill="#000000" font-family="sans-serif" font-size="11" lengthAdjust="spacingAndGlyphs" textLength="47" x="169.5" y="100.7729">str desc</text><ellipse cx="160.5" cy="111.2695" fill="none" rx="3" ry="3" style="stroke: #038048; stroke-width: 1.0;"/><text fill="#000000" font-family="sans-serif" font-size="11" lengthAdjust="spacingAndGlyphs" textLength="47" x="169.5" y="113.5776">bool grp</text><ellipse cx="160.5" cy="124.0742" fill="none" rx="3" ry="3" style="stroke: #038048; stroke-width: 1.0;"/><text fill="#000000" font-family="sans-serif" font-size="11" lengthAdjust="spacingAndGlyphs" textLength="50" x="169.5" y="126.3823">bool excl</text><ellipse cx="160.5" cy="136.8789" fill="none" rx="3" ry="3" style="stroke: #038048; stroke-width: 1.0;"/><text fill="#000000" font-family="sans-serif" font-size="11" lengthAdjust="spacingAndGlyphs" textLength="47" x="169.5" y="139.187">bool req</text><line style="stroke: #A80036; stroke-width: 1.5;" x1="150.5" x2="224.5" y1="145.7813" y2="145.7813"/><!--class Competitor--><rect fill="#FEFECE" filter="url(#fg3kfb3zxeiu0)" height="99.2188" id="Competitor" style="stroke: #A80036; stroke-width: 1.5;" width="112" x="70.5" y="230.9531"/><ellipse cx="90.45" cy="246.9531" fill="#ADD1B2" rx="11" ry="11" style="stroke: #A80036; stroke-width: 1.0;"/><path d="M92.7938,242.625 L92.9656,242.7031 C93.1844,242.3906 93.3875,242.2969 93.6844,242.2969 C93.9813,242.2969 94.2625,242.4375 94.4188,242.7031 C94.5125,242.8594 94.5281,242.9844 94.5281,243.4219 L94.5281,244.8438 C94.5281,245.2656 94.4969,245.4531 94.3875,245.6094 C94.2156,245.8281 93.95,245.9688 93.6844,245.9688 C93.4656,245.9688 93.2313,245.8594 93.0906,245.7188 C92.95,245.5938 92.9188,245.4688 92.8563,245.0625 C92.7625,244.6563 92.5906,244.4375 92.1063,244.1563 C91.6375,243.9063 91.0281,243.75 90.45,243.75 C88.7156,243.75 87.4656,245.0625 87.4656,246.8438 L87.4656,247.9375 C87.4656,249.6406 88.7625,250.7344 90.8094,250.7344 C91.575,250.7344 92.2625,250.6094 92.6844,250.3438 C92.8719,250.25 92.8719,250.25 93.325,249.7656 C93.5125,249.5781 93.7156,249.5 93.9344,249.5 C94.4031,249.5 94.7938,249.8906 94.7938,250.3438 C94.7938,250.7344 94.4656,251.1875 93.8875,251.5938 C93.1375,252.1406 91.9813,252.4375 90.7625,252.4375 C87.8719,252.4375 85.7625,250.5469 85.7625,247.9688 L85.7625,246.8438 C85.7625,244.125 87.7625,242.0469 90.3875,242.0469 C91.2625,242.0469 91.8563,242.1875 92.7938,242.625 Z "/><text fill="#000000" font-family="sans-serif" font-size="12" lengthAdjust="spacingAndGlyphs" textLength="69" x="105.55" y="251.1074">Competitor</text><line style="stroke: #A80036; stroke-width: 1.5;" x1="71.5" x2="181.5" y1="262.9531" y2="262.9531"/><ellipse cx="81.5" cy="274.8555" fill="none" rx="3" ry="3" style="stroke: #038048; stroke-width: 1.0;"/><text fill="#000000" font-family="sans-serif" font-size="11" lengthAdjust="spacingAndGlyphs" textLength="30" x="90.5" y="277.1636">str id</text><ellipse cx="81.5" cy="287.6602" fill="none" rx="3" ry="3" style="stroke: #038048; stroke-width: 1.0;"/><text fill="#000000" font-family="sans-serif" font-size="11" lengthAdjust="spacingAndGlyphs" textLength="45" x="90.5" y="289.9683">int start</text><ellipse cx="81.5" cy="300.4648" fill="none" rx="3" ry="3" style="stroke: #038048; stroke-width: 1.0;"/><text fill="#000000" font-family="sans-serif" font-size="11" lengthAdjust="spacingAndGlyphs" textLength="49" x="90.5" y="302.7729">int finish</text><ellipse cx="81.5" cy="313.2695" fill="none" rx="3" ry="3" style="stroke: #038048; stroke-width: 1.0;"/><text fill="#000000" font-family="sans-serif" font-size="11" lengthAdjust="spacingAndGlyphs" textLength="86" x="90.5" y="315.5776">str status[0..1]</text><line style="stroke: #A80036; stroke-width: 1.5;" x1="71.5" x2="181.5" y1="322.1719" y2="322.1719"/><!--class Name--><rect fill="#FEFECE" filter="url(#fg3kfb3zxeiu0)" height="86.4141" id="Name" style="stroke: #A80036; stroke-width: 1.5;" width="68" x="238.5" y="237.4531"/><ellipse cx="253.5" cy="253.4531" fill="#ADD1B2" rx="11" ry="11" style="stroke: #A80036; stroke-width: 1.0;"/><path d="M255.8438,249.125 L256.0156,249.2031 C256.2344,248.8906 256.4375,248.7969 256.7344,248.7969 C257.0313,248.7969 257.3125,248.9375 257.4688,249.2031 C257.5625,249.3594 257.5781,249.4844 257.5781,249.9219 L257.5781,251.3438 C257.5781,251.7656 257.5469,251.9531 257.4375,252.1094 C257.2656,252.3281 257,252.4688 256.7344,252.4688 C256.5156,252.4688 256.2813,252.3594 256.1406,252.2188 C256,252.0938 255.9688,251.9688 255.9063,251.5625 C255.8125,251.1563 255.6406,250.9375 255.1563,250.6563 C254.6875,250.4063 254.0781,250.25 253.5,250.25 C251.7656,250.25 250.5156,251.5625 250.5156,253.3438 L250.5156,254.4375 C250.5156,256.1406 251.8125,257.2344 253.8594,257.2344 C254.625,257.2344 255.3125,257.1094 255.7344,256.8438 C255.9219,256.75 255.9219,256.75 256.375,256.2656 C256.5625,256.0781 256.7656,256 256.9844,256 C257.4531,256 257.8438,256.3906 257.8438,256.8438 C257.8438,257.2344 257.5156,257.6875 256.9375,258.0938 C256.1875,258.6406 255.0313,258.9375 253.8125,258.9375 C250.9219,258.9375 248.8125,257.0469 248.8125,254.4688 L248.8125,253.3438 C248.8125,250.625 250.8125,248.5469 253.4375,248.5469 C254.3125,248.5469 254.9063,248.6875 255.8438,249.125 Z "/><text fill="#000000" font-family="sans-serif" font-size="12" lengthAdjust="spacingAndGlyphs" textLength="36" x="267.5" y="257.6074">Name</text><line style="stroke: #A80036; stroke-width: 1.5;" x1="239.5" x2="305.5" y1="269.4531" y2="269.4531"/><ellipse cx="249.5" cy="281.3555" fill="none" rx="3" ry="3" style="stroke: #038048; stroke-width: 1.0;"/><text fill="#000000" font-family="sans-serif" font-size="11" lengthAdjust="spacingAndGlyphs" textLength="30" x="258.5" y="283.6636">str id</text><ellipse cx="249.5" cy="294.1602" fill="none" rx="3" ry="3" style="stroke: #038048; stroke-width: 1.0;"/><text fill="#000000" font-family="sans-serif" font-size="11" lengthAdjust="spacingAndGlyphs" textLength="34" x="258.5" y="296.4683">str gn</text><ellipse cx="249.5" cy="306.9648" fill="none" rx="3" ry="3" style="stroke: #038048; stroke-width: 1.0;"/><text fill="#000000" font-family="sans-serif" font-size="11" lengthAdjust="spacingAndGlyphs" textLength="31" x="258.5" y="309.2729">str fn</text><line style="stroke: #A80036; stroke-width: 1.5;" x1="239.5" x2="305.5" y1="315.8672" y2="315.8672"/><!--class Community--><rect fill="#FEFECE" filter="url(#fg3kfb3zxeiu0)" height="86.4141" id="Community" style="stroke: #A80036; stroke-width: 1.5;" width="102" x="158.5" y="406.9531"/><ellipse cx="174.4" cy="422.9531" fill="#ADD1B2" rx="11" ry="11" style="stroke: #A80036; stroke-width: 1.0;"/><path d="M176.7438,418.625 L176.9156,418.7031 C177.1344,418.3906 177.3375,418.2969 177.6344,418.2969 C177.9313,418.2969 178.2125,418.4375 178.3688,418.7031 C178.4625,418.8594 178.4781,418.9844 178.4781,419.4219 L178.4781,420.8438 C178.4781,421.2656 178.4469,421.4531 178.3375,421.6094 C178.1656,421.8281 177.9,421.9688 177.6344,421.9688 C177.4156,421.9688 177.1813,421.8594 177.0406,421.7188 C176.9,421.5938 176.8688,421.4688 176.8063,421.0625 C176.7125,420.6563 176.5406,420.4375 176.0563,420.1563 C175.5875,419.9063 174.9781,419.75 174.4,419.75 C172.6656,419.75 171.4156,421.0625 171.4156,422.8438 L171.4156,423.9375 C171.4156,425.6406 172.7125,426.7344 174.7594,426.7344 C175.525,426.7344 176.2125,426.6094 176.6344,426.3438 C176.8219,426.25 176.8219,426.25 177.275,425.7656 C177.4625,425.5781 177.6656,425.5 177.8844,425.5 C178.3531,425.5 178.7438,425.8906 178.7438,426.3438 C178.7438,426.7344 178.4156,427.1875 177.8375,427.5938 C177.0875,428.1406 175.9313,428.4375 174.7125,428.4375 C171.8219,428.4375 169.7125,426.5469 169.7125,423.9688 L169.7125,422.8438 C169.7125,420.125 171.7125,418.0469 174.3375,418.0469 C175.2125,418.0469 175.8063,418.1875 176.7438,418.625 Z "/><text fill="#000000" font-family="sans-serif" font-size="12" lengthAdjust="spacingAndGlyphs" textLength="68" x="188.6" y="427.1074">Community</text><line style="stroke: #A80036; stroke-width: 1.5;" x1="159.5" x2="259.5" y1="438.9531" y2="438.9531"/><ellipse cx="169.5" cy="450.8555" fill="none" rx="3" ry="3" style="stroke: #038048; stroke-width: 1.0;"/><text fill="#000000" font-family="sans-serif" font-size="11" lengthAdjust="spacingAndGlyphs" textLength="30" x="178.5" y="453.1636">str id</text><ellipse cx="169.5" cy="463.6602" fill="none" rx="3" ry="3" style="stroke: #038048; stroke-width: 1.0;"/><text fill="#000000" font-family="sans-serif" font-size="11" lengthAdjust="spacingAndGlyphs" textLength="52" x="178.5" y="465.9683">str name</text><ellipse cx="169.5" cy="476.4648" fill="none" rx="3" ry="3" style="stroke: #038048; stroke-width: 1.0;"/><text fill="#000000" font-family="sans-serif" font-size="11" lengthAdjust="spacingAndGlyphs" textLength="76" x="178.5" y="478.7729">str abbr[0..1]</text><line style="stroke: #A80036; stroke-width: 1.5;" x1="159.5" x2="259.5" y1="485.3672" y2="485.3672"/><!--link Event to Tag--><path d="M97.6994,91.4531 C114.835,91.4531 133.545,91.4531 149.431,91.4531 " fill="none" id="Event-Tag" style="stroke: #A80036; stroke-width: 1.0;"/><polygon fill="#FFFFFF" points="84.678,91.4531,90.678,95.4531,96.678,91.4531,90.678,87.4531,84.678,91.4531" style="stroke: #A80036; stroke-width: 1.0;"/><text fill="#000000" font-family="sans-serif" font-size="13" lengthAdjust="spacingAndGlyphs" textLength="28" x="103" y="84.52">tags</text><text fill="#000000" font-family="sans-serif" font-size="13" lengthAdjust="spacingAndGlyphs" textLength="23" x="92.4381" y="104.6469">1..*</text><text fill="#000000" font-family="sans-serif" font-size="13" lengthAdjust="spacingAndGlyphs" textLength="16" x="125.5129" y="87.2571">..1</text><!--link Event to Competitor--><path d="M69.1572,147.0691 C80.6529,173.6081 94.3515,205.2341 105.4767,230.9181 " fill="none" id="Event-Competitor" style="stroke: #A80036; stroke-width: 1.0;"/><polygon fill="#A80036" points="63.8802,134.8861,62.5946,141.9817,68.6499,145.8975,69.9355,138.8019,63.8802,134.8861" style="stroke: #A80036; stroke-width: 1.0;"/><text fill="#000000" font-family="sans-serif" font-size="13" lengthAdjust="spacingAndGlyphs" textLength="29" x="35.4986" y="155.0481">[eid]</text><text fill="#000000" font-family="sans-serif" font-size="13" lengthAdjust="spacingAndGlyphs" textLength="23" x="77.9031" y="219.9584">0..*</text><!--link Tag to Tag--><path d="M238.798,73.7101 C268.189,70.1421 295.5,76.0561 295.5,91.4531 C295.5,109.1291 259.508,114.3071 225.695,106.9881 " fill="none" id="Tag-Tag" style="stroke: #A80036; stroke-width: 1.0;"/><polygon fill="#FFFFFF" points="225.695,75.9181,232.2762,78.8657,237.5282,73.9244,230.947,70.9768,225.695,75.9181" style="stroke: #A80036; stroke-width: 1.0;"/><text fill="#000000" font-family="sans-serif" font-size="13" lengthAdjust="spacingAndGlyphs" textLength="57" x="233.4066" y="70.3392">[pid] 0..1</text><!--link Tag to Tag--><path d="M239.002,82.2431 C251.35,82.9631 260.5,86.0331 260.5,91.4531 C260.5,98.6801 244.234,101.7281 225.808,100.5991 " fill="none" id="Tag-Tag" style="stroke: #A80036; stroke-width: 1.0;"/><polygon fill="#FFFFFF" points="225.808,82.3071,231.8273,86.2781,237.8079,82.2491,231.7886,78.2782,225.808,82.3071" style="stroke: #A80036; stroke-width: 1.0;"/><text fill="#000000" font-family="sans-serif" font-size="13" lengthAdjust="spacingAndGlyphs" textLength="17" x="266.5" y="96.02">ref</text><text fill="#000000" font-family="sans-serif" font-size="13" lengthAdjust="spacingAndGlyphs" textLength="23" x="233.4348" y="76.8484">0..*</text><text fill="#000000" font-family="sans-serif" font-size="13" lengthAdjust="spacingAndGlyphs" textLength="23" x="233.4348" y="97.9414">0..*</text><!--link Competitor to Name--><path d="M195.954,280.4531 C210.706,280.4531 225.651,280.4531 238.373,280.4531 " fill="none" id="Competitor-Name" style="stroke: #A80036; stroke-width: 1.0;"/><polygon fill="#FFFFFF" points="182.53,280.4531,188.53,284.4531,194.53,280.4531,188.53,276.4531,182.53,280.4531" style="stroke: #A80036; stroke-width: 1.0;"/><text fill="#000000" font-family="sans-serif" font-size="13" lengthAdjust="spacingAndGlyphs" textLength="19" x="201" y="273.52">nid</text><text fill="#000000" font-family="sans-serif" font-size="13" lengthAdjust="spacingAndGlyphs" textLength="23" x="190.3382" y="293.3822">0..*</text><!--link Competitor to Community--><path d="M156.512,342.0201 C167.158,363.5041 178.899,387.1971 188.617,406.81 " fill="none" id="Competitor-Community" style="stroke: #A80036; stroke-width: 1.0;"/><polygon fill="#FFFFFF" points="150.73,330.3511,149.8103,337.5033,156.0586,341.1032,156.9783,333.951,150.73,330.3511" style="stroke: #A80036; stroke-width: 1.0;"/><text fill="#000000" font-family="sans-serif" font-size="13" lengthAdjust="spacingAndGlyphs" textLength="18" x="173.5" y="373.02">cid</text><text fill="#000000" font-family="sans-serif" font-size="13" lengthAdjust="spacingAndGlyphs" textLength="23" x="129.4406" y="350.1251">0..*</text><text fill="#000000" font-family="sans-serif" font-size="13" lengthAdjust="spacingAndGlyphs" textLength="24" x="159.3763" y="395.7834">0..1</text><!--link Tag to Competitor--><path d="M167.357,154.2021 C160.632,174.8171 153.145,197.7701 146.436,218.3371 " fill="none" id="Tag-Competitor" style="stroke: #A80036; stroke-width: 1.0;"/><polygon fill="#FFFFFF" points="142.373,230.7921,148.0364,226.3282,146.0941,219.3836,140.4307,223.8475,142.373,230.7921" style="stroke: #A80036; stroke-width: 1.0;"/><text fill="#000000" font-family="sans-serif" font-size="13" lengthAdjust="spacingAndGlyphs" textLength="28" x="157.5" y="197.02">tags</text><text fill="#000000" font-family="sans-serif" font-size="13" lengthAdjust="spacingAndGlyphs" textLength="24" x="139.8414" y="173.9692">0..1</text><text fill="#000000" font-family="sans-serif" font-size="13" lengthAdjust="spacingAndGlyphs" textLength="23" x="119.988" y="219.8147">0..*</text><!--link Name to Community--><path d="M251.958,336.0691 C243.33,359.0081 233.45,385.2771 225.392,406.6993 " fill="none" id="Name-Community" style="stroke: #A80036; stroke-width: 1.0;"/><polygon fill="#FFFFFF" points="256.602,323.7201,250.7457,327.9277,252.3772,334.9518,258.2335,330.7442,256.602,323.7201" style="stroke: #A80036; stroke-width: 1.0;"/><text fill="#000000" font-family="sans-serif" font-size="13" lengthAdjust="spacingAndGlyphs" textLength="12" x="243.5" y="373.02">rc</text><text fill="#000000" font-family="sans-serif" font-size="13" lengthAdjust="spacingAndGlyphs" textLength="23" x="229.2354" y="343.8556">0..*</text><text fill="#000000" font-family="sans-serif" font-size="13" lengthAdjust="spacingAndGlyphs" textLength="24" x="201.988" y="395.9728">0..1</text><!--
@startuml
title Results-ng concepts & dependencies

class Event {
  +str id
  +str date
  +str name
}
Event "1..*" o-right- "..1" Tag:tags
Event "[eid]" *-down- "0..*" Competitor

class Tag {
  +str id
  +str tag
  +str desc
  +bool grp
  +bool excl
  +bool req
}
Tag "[pid] 0..1" o- Tag
Tag "0..*" o- "0..*" Tag:ref

class Competitor {
  +str id
  +int start
  +int finish
  +str status[0..1]
}
Competitor "0..*" o- Name:nid
Competitor "0..*" o- "0..1" Community:cid
Competitor "0..*" o-up- "0..1" Tag:tags

class Name {
  +str id
  +str gn
  +str fn
}
Name "0..*" o-down- "0..1" Community:rc

class Community {
  +str id
  +str name
  +str abbr[0..1]
}
@enduml

PlantUML version 1.2019.01(Sat Feb 09 15:32:04 UTC 2019)
(GPL source distribution)
Java Runtime: Java(TM) SE Runtime Environment
JVM: Java HotSpot(TM) 64-Bit Server VM
Java Version: 1.7.0_25-b15
Operating System: Linux
Default Encoding: UTF-8
Language: en
Country: US
--></g></svg>