<?xml version="1.0" encoding="UTF-8" standalone="no"?>
<svg xmlns="http://www.w3.org/2000/svg" xmlns:xlink="http://www.w3.org/1999/xlink" contentScriptType="application/ecmascript" contentStyleType="text/css" height="501px" preserveAspectRatio="none" style="width:335px;height:501px;" version="1.1" viewBox="0 0 335 501" width="335px" zoomAndPan="magnify"><defs><filter height="300%" id="fnxzl8hymheca" width="300%" x="-1" y="-1"><feGaussianBlur result="blurOut" stdDeviation="2.0"/><feColorMatrix in="blurOut" result="blurOut2" type="matrix" values="0 0 0 0 0 0 0 0 0 0 0 0 0 0 0 0 0 0 .4 0"/><feOffset dx="4.0" dy="4.0" in="blurOut2" result="blurOut3"/><feBlend in="SourceGraphic" in2="blurOut3" mode="normal"/></filter></defs><g><text fill="#000000" font-family="sans-serif" font-size="18" lengthAdjust="spacingAndGlyphs" textLength="321" x="2" y="16.708">Results-ng concepts &amp; dependencies</text><!--class Event--><rect fill="#FEFECE" filter="url(#fnxzl8hymheca)" height="86.4141" id="Event" style="stroke: #A80036; stroke-width: 1.5;" width="78" x="23.5" y="54.9531"/><ellipse cx="43.45" cy="70.9531" fill="#ADD1B2" rx="11" ry="11" style="stroke: #A80036; stroke-width: 1.0;"/><path d="M45.7938,66.625 L45.9656,66.7031 C46.1844,66.3906 46.3875,66.2969 46.6844,66.2969 C46.9813,66.2969 47.2625,66.4375 47.4188,66.7031 C47.5125,66.8594 47.5281,66.9844 47.5281,67.4219 L47.5281,68.8438 C47.5281,69.2656 47.4969,69.4531 47.3875,69.6094 C47.2156,69.8281 46.95,69.9688 46.6844,69.9688 C46.4656,69.9688 46.2313,69.8594 46.0906,69.7188 C45.95,69.5938 45.9188,69.4688 45.8563,69.0625 C45.7625,68.6563 45.5906,68.4375 45.1063,68.1563 C44.6375,67.9063 44.0281,67.75 43.45,67.75 C41.7156,67.75 40.4656,69.0625 40.4656,70.8438 L40.4656,71.9375 C40.4656,73.6406 41.7625,74.7344 43.8094,74.7344 C44.575,74.7344 45.2625,74.6094 45.6844,74.3438 C45.8719,74.25 45.8719,74.25 46.325,73.7656 C46.5125,73.5781 46.7156,73.5 46.9344,73.5 C47.4031,73.5 47.7938,73.8906 47.7938,74.3438 C47.7938,74.7344 47.4656,75.1875 46.8875,75.5938 C46.1375,76.1406 44.9813,76.4375 43.7625,76.4375 C40.8719,76.4375 38.7625,74.5469 38.7625,71.9688 L38.7625,70.8438 C38.7625,68.125 40.7625,66.0469 43.3875,66.0469 C44.2625,66.0469 44.8563,66.1875 45.7938,66.625 Z "/><text fill="#000000" font-family="sans-serif" font-size="12" lengthAdjust="spacingAndGlyphs" textLength="35" x="58.55" y="75.1074">Event</text><line style="stroke: #A80036; stroke-width: 1.5;" x1="24.5" x2="100.5" y1="86.9531" y2="86.9531"/><ellipse cx="34.5" cy="98.8555" fill="none" rx="3" ry="3" style="stroke: #038048; stroke-width: 1.0;"/><text fill="#000000" font-family="sans-serif" font-size="11" lengthAdjust="spacingAndGlyphs" textLength="30" x="43.5" y="101.1636">str id</text><ellipse cx="34.5" cy="111.6602" fill="none" rx="3" ry="3" style="stroke: #038048; stroke-width: 1.0;"/><text fill="#000000" font-family="sans-serif" font-size="11" lengthAdjust="spacingAndGlyphs" textLength="45" x="43.5" y="113.9683">str date</text><ellipse cx="34.5" cy="124.4648" fill="none" rx="3" ry="3" style="stroke: #038048; stroke-width: 1.0;"/><text fill="#000000" font-family="sans-serif" font-size="11" lengthAdjust="spacingAndGlyphs" textLength="52" x="43.5" y="126.7729">str name</text><line style="stroke: #A80036; stroke-width: 1.5;" x1="24.5" x2="100.5" y1="133.3672" y2="133.3672"/><!--class Tag--><rect fill="#FEFECE" filter="url(#fnxzl8hymheca)" height="137.6328" id="Tag" style="stroke: #A80036; stroke-width: 1.5;" width="76" x="166.5" y="28.9531"/><ellipse cx="190.95" cy="44.9531" fill="#ADD1B2" rx="11" ry="11" style="stroke: #A80036; stroke-width: 1.0;"/><path d="M193.2938,40.625 L193.4656,40.7031 C193.6844,40.3906 193.8875,40.2969 194.1844,40.2969 C194.4813,40.2969 194.7625,40.4375 194.9188,40.7031 C195.0125,40.8594 195.0281,40.9844 195.0281,41.4219 L195.0281,42.8438 C195.0281,43.2656 194.9969,43.4531 194.8875,43.6094 C194.7156,43.8281 194.45,43.9688 194.1844,43.9688 C193.9656,43.9688 193.7313,43.8594 193.5906,43.7188 C193.45,43.5938 193.4188,43.4688 193.3563,43.0625 C193.2625,42.6563 193.0906,42.4375 192.6063,42.1563 C192.1375,41.9063 191.5281,41.75 190.95,41.75 C189.2156,41.75 187.9656,43.0625 187.9656,44.8438 L187.9656,45.9375 C187.9656,47.6406 189.2625,48.7344 191.3094,48.7344 C192.075,48.7344 192.7625,48.6094 193.1844,48.3438 C193.3719,48.25 193.3719,48.25 193.825,47.7656 C194.0125,47.5781 194.2156,47.5 194.4344,47.5 C194.9031,47.5 195.2938,47.8906 195.2938,48.3438 C195.2938,48.7344 194.9656,49.1875 194.3875,49.5938 C193.6375,50.1406 192.4813,50.4375 191.2625,50.4375 C188.3719,50.4375 186.2625,48.5469 186.2625,45.9688 L186.2625,44.8438 C186.2625,42.125 188.2625,40.0469 190.8875,40.0469 C191.7625,40.0469 192.3563,40.1875 193.2938,40.625 Z "/><text fill="#000000" font-family="sans-serif" font-size="12" lengthAdjust="spacingAndGlyphs" textLength="23" x="207.05" y="49.1074">Tag</text><line style="stroke: #A80036; stroke-width: 1.5;" x1="167.5" x2="241.5" y1="60.9531" y2="60.9531"/><ellipse cx="177.5" cy="72.8555" fill="none" rx="3" ry="3" style="stroke: #038048; stroke-width: 1.0;"/><text fill="#000000" font-family="sans-serif" font-size="11" lengthAdjust="spacingAndGlyphs" textLength="30" x="186.5" y="75.1636">str id</text><ellipse cx="177.5" cy="85.6602" fill="none" rx="3" ry="3" style="stroke: #038048; stroke-width: 1.0;"/><text fill="#000000" font-family="sans-serif" font-size="11" lengthAdjust="spacingAndGlyphs" textLength="37" x="186.5" y="87.9683">str pid</text><ellipse cx="177.5" cy="98.4648" fill="none" rx="3" ry="3" style="stroke: #038048; stroke-width: 1.0;"/><text fill="#000000" font-family="sans-serif" font-size="11" lengthAdjust="spacingAndGlyphs" textLength="38" x="186.5" y="100.7729">str tag</text><ellipse cx="177.5" cy="111.2695" fill="none" rx="3" ry="3" style="stroke: #038048; stroke-width: 1.0;"/><text fill="#000000" font-family="sans-serif" font-size="11" lengthAdjust="spacingAndGlyphs" textLength="47" x="186.5" y="113.5776">str desc</text><ellipse cx="177.5" cy="124.0742" fill="none" rx="3" ry="3" style="stroke: #038048; stroke-width: 1.0;"/><text fill="#000000" font-family="sans-serif" font-size="11" lengthAdjust="spacingAndGlyphs" textLength="47" x="186.5" y="126.3823">bool grp</text><ellipse cx="177.5" cy="136.8789" fill="none" rx="3" ry="3" style="stroke: #038048; stroke-width: 1.0;"/><text fill="#000000" font-family="sans-serif" font-size="11" lengthAdjust="spacingAndGlyphs" textLength="50" x="186.5" y="139.187">bool excl</text><ellipse cx="177.5" cy="149.6836" fill="none" rx="3" ry="3" style="stroke: #038048; stroke-width: 1.0;"/><text fill="#000000" font-family="sans-serif" font-size="11" lengthAdjust="spacingAndGlyphs" textLength="47" x="186.5" y="151.9917">bool req</text><line style="stroke: #A80036; stroke-width: 1.5;" x1="167.5" x2="241.5" y1="158.5859" y2="158.5859"/><!--class Competitor--><rect fill="#FEFECE" filter="url(#fnxzl8hymheca)" height="99.2188" id="Competitor" style="stroke: #A80036; stroke-width: 1.5;" width="112" x="6.5" y="227.9531"/><ellipse cx="26.45" cy="243.9531" fill="#ADD1B2" rx="11" ry="11" style="stroke: #A80036; stroke-width: 1.0;"/><path d="M28.7938,239.625 L28.9656,239.7031 C29.1844,239.3906 29.3875,239.2969 29.6844,239.2969 C29.9813,239.2969 30.2625,239.4375 30.4188,239.7031 C30.5125,239.8594 30.5281,239.9844 30.5281,240.4219 L30.5281,241.8438 C30.5281,242.2656 30.4969,242.4531 30.3875,242.6094 C30.2156,242.8281 29.95,242.9688 29.6844,242.9688 C29.4656,242.9688 29.2313,242.8594 29.0906,242.7188 C28.95,242.5938 28.9188,242.4688 28.8563,242.0625 C28.7625,241.6563 28.5906,241.4375 28.1063,241.1563 C27.6375,240.9063 27.0281,240.75 26.45,240.75 C24.7156,240.75 23.4656,242.0625 23.4656,243.8438 L23.4656,244.9375 C23.4656,246.6406 24.7625,247.7344 26.8094,247.7344 C27.575,247.7344 28.2625,247.6094 28.6844,247.3438 C28.8719,247.25 28.8719,247.25 29.325,246.7656 C29.5125,246.5781 29.7156,246.5 29.9344,246.5 C30.4031,246.5 30.7938,246.8906 30.7938,247.3438 C30.7938,247.7344 30.4656,248.1875 29.8875,248.5938 C29.1375,249.1406 27.9813,249.4375 26.7625,249.4375 C23.8719,249.4375 21.7625,247.5469 21.7625,244.9688 L21.7625,243.8438 C21.7625,241.125 23.7625,239.0469 26.3875,239.0469 C27.2625,239.0469 27.8563,239.1875 28.7938,239.625 Z "/><text fill="#000000" font-family="sans-serif" font-size="12" lengthAdjust="spacingAndGlyphs" textLength="69" x="41.55" y="248.1074">Competitor</text><line style="stroke: #A80036; stroke-width: 1.5;" x1="7.5" x2="117.5" y1="259.9531" y2="259.9531"/><ellipse cx="17.5" cy="271.8555" fill="none" rx="3" ry="3" style="stroke: #038048; stroke-width: 1.0;"/><text fill="#000000" font-family="sans-serif" font-size="11" lengthAdjust="spacingAndGlyphs" textLength="30" x="26.5" y="274.1636">str id</text><ellipse cx="17.5" cy="284.6602" fill="none" rx="3" ry="3" style="stroke: #038048; stroke-width: 1.0;"/><text fill="#000000" font-family="sans-serif" font-size="11" lengthAdjust="spacingAndGlyphs" textLength="45" x="26.5" y="286.9683">int start</text><ellipse cx="17.5" cy="297.4648" fill="none" rx="3" ry="3" style="stroke: #038048; stroke-width: 1.0;"/><text fill="#000000" font-family="sans-serif" font-size="11" lengthAdjust="spacingAndGlyphs" textLength="49" x="26.5" y="299.7729">int finish</text><ellipse cx="17.5" cy="310.2695" fill="none" rx="3" ry="3" style="stroke: #038048; stroke-width: 1.0;"/><text fill="#000000" font-family="sans-serif" font-size="11" lengthAdjust="spacingAndGlyphs" textLength="86" x="26.5" y="312.5776">str status[0..1]</text><line style="stroke: #A80036; stroke-width: 1.5;" x1="7.5" x2="117.5" y1="319.1719" y2="319.1719"/><!--class Name--><rect fill="#FEFECE" filter="url(#fnxzl8hymheca)" height="86.4141" id="Name" style="stroke: #A80036; stroke-width: 1.5;" width="68" x="174.5" y="234.4531"/><ellipse cx="189.5" cy="250.4531" fill="#ADD1B2" rx="11" ry="11" style="stroke: #A80036; stroke-width: 1.0;"/><path d="M191.8438,246.125 L192.0156,246.2031 C192.2344,245.8906 192.4375,245.7969 192.7344,245.7969 C193.0313,245.7969 193.3125,245.9375 193.4688,246.2031 C193.5625,246.3594 193.5781,246.4844 193.5781,246.9219 L193.5781,248.3438 C193.5781,248.7656 193.5469,248.9531 193.4375,249.1094 C193.2656,249.3281 193,249.4688 192.7344,249.4688 C192.5156,249.4688 192.2813,249.3594 192.1406,249.2188 C192,249.0938 191.9688,248.9688 191.9063,248.5625 C191.8125,248.1563 191.6406,247.9375 191.1563,247.6563 C190.6875,247.4063 190.0781,247.25 189.5,247.25 C187.7656,247.25 186.5156,248.5625 186.5156,250.3438 L186.5156,251.4375 C186.5156,253.1406 187.8125,254.2344 189.8594,254.2344 C190.625,254.2344 191.3125,254.1094 191.7344,253.8438 C191.9219,253.75 191.9219,253.75 192.375,253.2656 C192.5625,253.0781 192.7656,253 192.9844,253 C193.4531,253 193.8438,253.3906 193.8438,253.8438 C193.8438,254.2344 193.5156,254.6875 192.9375,255.0938 C192.1875,255.6406 191.0313,255.9375 189.8125,255.9375 C186.9219,255.9375 184.8125,254.0469 184.8125,251.4688 L184.8125,250.3438 C184.8125,247.625 186.8125,245.5469 189.4375,245.5469 C190.3125,245.5469 190.9063,245.6875 191.8438,246.125 Z "/><text fill="#000000" font-family="sans-serif" font-size="12" lengthAdjust="spacingAndGlyphs" textLength="36" x="203.5" y="254.6074">Name</text><line style="stroke: #A80036; stroke-width: 1.5;" x1="175.5" x2="241.5" y1="266.4531" y2="266.4531"/><ellipse cx="185.5" cy="278.3555" fill="none" rx="3" ry="3" style="stroke: #038048; stroke-width: 1.0;"/><text fill="#000000" font-family="sans-serif" font-size="11" lengthAdjust="spacingAndGlyphs" textLength="30" x="194.5" y="280.6636">str id</text><ellipse cx="185.5" cy="291.1602" fill="none" rx="3" ry="3" style="stroke: #038048; stroke-width: 1.0;"/><text fill="#000000" font-family="sans-serif" font-size="11" lengthAdjust="spacingAndGlyphs" textLength="34" x="194.5" y="293.4683">str gn</text><ellipse cx="185.5" cy="303.9648" fill="none" rx="3" ry="3" style="stroke: #038048; stroke-width: 1.0;"/><text fill="#000000" font-family="sans-serif" font-size="11" lengthAdjust="spacingAndGlyphs" textLength="31" x="194.5" y="306.2729">str fn</text><line style="stroke: #A80036; stroke-width: 1.5;" x1="175.5" x2="241.5" y1="312.8672" y2="312.8672"/><!--class Community--><rect fill="#FEFECE" filter="url(#fnxzl8hymheca)" height="86.4141" id="Community" style="stroke: #A80036; stroke-width: 1.5;" width="102" x="83.5" y="403.9531"/><ellipse cx="99.4" cy="419.9531" fill="#ADD1B2" rx="11" ry="11" style="stroke: #A80036; stroke-width: 1.0;"/><path d="M101.7438,415.625 L101.9156,415.7031 C102.1344,415.3906 102.3375,415.2969 102.6344,415.2969 C102.9313,415.2969 103.2125,415.4375 103.3688,415.7031 C103.4625,415.8594 103.4781,415.9844 103.4781,416.4219 L103.4781,417.8438 C103.4781,418.2656 103.4469,418.4531 103.3375,418.6094 C103.1656,418.8281 102.9,418.9688 102.6344,418.9688 C102.4156,418.9688 102.1813,418.8594 102.0406,418.7188 C101.9,418.5938 101.8688,418.4688 101.8063,418.0625 C101.7125,417.6563 101.5406,417.4375 101.0563,417.1563 C100.5875,416.9063 99.9781,416.75 99.4,416.75 C97.6656,416.75 96.4156,418.0625 96.4156,419.8438 L96.4156,420.9375 C96.4156,422.6406 97.7125,423.7344 99.7594,423.7344 C100.525,423.7344 101.2125,423.6094 101.6344,423.3438 C101.8219,423.25 101.8219,423.25 102.275,422.7656 C102.4625,422.5781 102.6656,422.5 102.8844,422.5 C103.3531,422.5 103.7438,422.8906 103.7438,423.3438 C103.7438,423.7344 103.4156,424.1875 102.8375,424.5938 C102.0875,425.1406 100.9313,425.4375 99.7125,425.4375 C96.8219,425.4375 94.7125,423.5469 94.7125,420.9688 L94.7125,419.8438 C94.7125,417.125 96.7125,415.0469 99.3375,415.0469 C100.2125,415.0469 100.8063,415.1875 101.7438,415.625 Z "/><text fill="#000000" font-family="sans-serif" font-size="12" lengthAdjust="spacingAndGlyphs" textLength="68" x="113.6" y="424.1074">Community</text><line style="stroke: #A80036; stroke-width: 1.5;" x1="84.5" x2="184.5" y1="435.9531" y2="435.9531"/><ellipse cx="94.5" cy="447.8555" fill="none" rx="3" ry="3" style="stroke: #038048; stroke-width: 1.0;"/><text fill="#000000" font-family="sans-serif" font-size="11" lengthAdjust="spacingAndGlyphs" textLength="30" x="103.5" y="450.1636">str id</text><ellipse cx="94.5" cy="460.6602" fill="none" rx="3" ry="3" style="stroke: #038048; stroke-width: 1.0;"/><text fill="#000000" font-family="sans-serif" font-size="11" lengthAdjust="spacingAndGlyphs" textLength="52" x="103.5" y="462.9683">str name</text><ellipse cx="94.5" cy="473.4648" fill="none" rx="3" ry="3" style="stroke: #038048; stroke-width: 1.0;"/><text fill="#000000" font-family="sans-serif" font-size="11" lengthAdjust="spacingAndGlyphs" textLength="76" x="103.5" y="475.7729">str abbr[0..1]</text><line style="stroke: #A80036; stroke-width: 1.5;" x1="84.5" x2="184.5" y1="482.3672" y2="482.3672"/><!--link Event to Tag--><path d="M114.699,97.9531 C131.835,97.9531 150.545,97.9531 166.431,97.9531 " fill="none" id="Event-Tag" style="stroke: #A80036; stroke-width: 1.0;"/><polygon fill="#FFFFFF" points="101.678,97.9531,107.678,101.9531,113.678,97.9531,107.678,93.9531,101.678,97.9531" style="stroke: #A80036; stroke-width: 1.0;"/><text fill="#000000" font-family="sans-serif" font-size="13" lengthAdjust="spacingAndGlyphs" textLength="28" x="120" y="91.02">tags</text><text fill="#000000" font-family="sans-serif" font-size="13" lengthAdjust="spacingAndGlyphs" textLength="23" x="109.4381" y="111.1469">1..*</text><text fill="#000000" font-family="sans-serif" font-size="13" lengthAdjust="spacingAndGlyphs" textLength="15" x="143.5988" y="93.7739">..*</text><!--link Event to Competitor--><path d="M62.5,154.0491 C62.5,177.6361 62.5,204.9471 62.5,227.7781 " fill="none" id="Event-Competitor" style="stroke: #A80036; stroke-width: 1.0;"/><polygon fill="#A80036" points="62.5,141.0181,58.5,147.0181,62.5,153.0181,66.5,147.0181,62.5,141.0181" style="stroke: #A80036; stroke-width: 1.0;"/><text fill="#000000" font-family="sans-serif" font-size="13" lengthAdjust="spacingAndGlyphs" textLength="29" x="31.0984" y="161.4366">[eid]</text><text fill="#000000" font-family="sans-serif" font-size="13" lengthAdjust="spacingAndGlyphs" textLength="23" x="37.8828" y="216.7987">0..*</text><!--link Tag to Tag--><path d="M256.002,79.9021 C268.35,81.3131 277.5,87.3301 277.5,97.9531 C277.5,112.1171 261.234,118.0931 242.808,115.8791 " fill="none" id="Tag-Tag" style="stroke: #A80036; stroke-width: 1.0;"/><polygon fill="#FFFFFF" points="242.808,80.0271,248.8455,83.9702,254.8075,79.9137,248.7699,75.9706,242.808,80.0271" style="stroke: #A80036; stroke-width: 1.0;"/><text fill="#000000" font-family="sans-serif" font-size="13" lengthAdjust="spacingAndGlyphs" textLength="17" x="283.5" y="102.52">ref</text><text fill="#000000" font-family="sans-serif" font-size="13" lengthAdjust="spacingAndGlyphs" textLength="23" x="250.4348" y="73.2389">0..*</text><text fill="#000000" font-family="sans-serif" font-size="13" lengthAdjust="spacingAndGlyphs" textLength="23" x="250.4348" y="114.5808">0..*</text><!--link Competitor to Name--><path d="M131.954,277.4531 C146.706,277.4531 161.651,277.4531 174.373,277.4531 " fill="none" id="Competitor-Name" style="stroke: #A80036; stroke-width: 1.0;"/><polygon fill="#FFFFFF" points="118.53,277.4531,124.53,281.4531,130.53,277.4531,124.53,273.4531,118.53,277.4531" style="stroke: #A80036; stroke-width: 1.0;"/><text fill="#000000" font-family="sans-serif" font-size="13" lengthAdjust="spacingAndGlyphs" textLength="19" x="137" y="270.52">nid</text><text fill="#000000" font-family="sans-serif" font-size="13" lengthAdjust="spacingAndGlyphs" textLength="23" x="126.3382" y="290.3822">0..*</text><!--link Competitor to Community--><path d="M88.6629,339.3181 C97.8638,360.7231 107.993,384.2881 116.385,403.81 " fill="none" id="Competitor-Community" style="stroke: #A80036; stroke-width: 1.0;"/><polygon fill="#FFFFFF" points="83.5189,327.3511,82.213,334.443,88.2571,338.3761,89.563,331.2842,83.5189,327.3511" style="stroke: #A80036; stroke-width: 1.0;"/><text fill="#000000" font-family="sans-serif" font-size="13" lengthAdjust="spacingAndGlyphs" textLength="18" x="104.5" y="370.02">cid</text><text fill="#000000" font-family="sans-serif" font-size="13" lengthAdjust="spacingAndGlyphs" textLength="23" x="61.798" y="347.1251">0..*</text><text fill="#000000" font-family="sans-serif" font-size="13" lengthAdjust="spacingAndGlyphs" textLength="24" x="87.5851" y="392.7834">0..1</text><!--link Name to Community--><path d="M184.512,332.7511 C174.345,355.7641 162.675,382.1781 153.167,403.6993 " fill="none" id="Name-Community" style="stroke: #A80036; stroke-width: 1.0;"/><polygon fill="#FFFFFF" points="189.827,320.7201,183.7437,324.5922,184.9782,331.6969,191.0615,327.8248,189.827,320.7201" style="stroke: #A80036; stroke-width: 1.0;"/><text fill="#000000" font-family="sans-serif" font-size="13" lengthAdjust="spacingAndGlyphs" textLength="12" x="175.5" y="370.02">rc</text><text fill="#000000" font-family="sans-serif" font-size="13" lengthAdjust="spacingAndGlyphs" textLength="23" x="162.0182" y="340.8556">0..*</text><text fill="#000000" font-family="sans-serif" font-size="13" lengthAdjust="spacingAndGlyphs" textLength="24" x="130.1879" y="392.9728">0..1</text><!--
@startuml
title Results-ng concepts & dependencies

class Event {
  +str id
  +str date
  +str name
}
Event "1..*" o- "..*" Tag:tags
Event "[eid]" *-down- "0..*" Competitor

class Tag {
  +str id
  +str pid
  +str tag
  +str desc
  +bool grp
  +bool excl
  +bool req
}
Tag "0..*" o- "0..*" Tag:ref

class Competitor {
  +str id
  +int start
  +int finish
  +str status[0..1]
}
Competitor "0..*" o- Name:nid
Competitor "0..*" o- "0..1" Community:cid

class Name {
  +str id
  +str gn
  +str fn
}
Name "0..*" o-down- "0..1" Community:rc

class Community {
  +str id
  +str name
  +str abbr[0..1]
}
@enduml

PlantUML version 1.2019.01(Sat Feb 09 15:32:04 UTC 2019)
(GPL source distribution)
Java Runtime: Java(TM) SE Runtime Environment
JVM: Java HotSpot(TM) 64-Bit Server VM
Java Version: 1.7.0_25-b15
Operating System: Linux
Default Encoding: UTF-8
Language: en
Country: US
--></g></svg>