<?xml version="1.0" encoding="UTF-8" standalone="no"?>
<svg
   xmlns:osb="http://www.openswatchbook.org/uri/2009/osb"
   xmlns:dc="http://purl.org/dc/elements/1.1/"
   xmlns:cc="http://creativecommons.org/ns#"
   xmlns:rdf="http://www.w3.org/1999/02/22-rdf-syntax-ns#"
   xmlns:svg="http://www.w3.org/2000/svg"
   xmlns="http://www.w3.org/2000/svg"
   id="svg6268"
   version="1.1"
   viewBox="0 0 10 10"
   height="10mm"
   width="10mm">
  <defs
     id="defs6262">
    <linearGradient
       gradientTransform="matrix(0.00396449,0,0,0.00459936,-56.297903,355.60367)"
       osb:paint="solid"
       id="linearGradient4909">
      <stop
         id="stop4907"
         offset="0"
         style="stop-color:#000000;stop-opacity:1;" />
    </linearGradient>
    <linearGradient
       gradientTransform="matrix(0.0149839,0,0,0.01738339,-217.02744,254.56543)"
       osb:paint="solid"
       id="linearGradient4909-4">
      <stop
         id="stop4907-8"
         offset="0"
         style="stop-color:#bb29bb;stop-opacity:1;" />
    </linearGradient>
  </defs>
  <metadata
     id="metadata6265">
    <rdf:RDF>
      <cc:Work
         rdf:about="">
        <dc:format>image/svg+xml</dc:format>
        <dc:type
           rdf:resource="http://purl.org/dc/dcmitype/StillImage" />
        <dc:title></dc:title>
      </cc:Work>
    </rdf:RDF>
  </metadata>
  <g
     transform="translate(0,-287)"
     id="layer1">
    <path
       id="rect1672-5-9-9-7"
       d="m 0.99999,287.00005 c -0.5540001,0 -0.99994,0.44594 -0.99994,0.99994 v 8.00002 c 0,0.554 0.4459399,0.99994 0.99994,0.99994 h 8.00002 c 0.554,0 0.99994,-0.44594 0.99994,-0.99994 v -8.00002 c 0,-0.554 -0.44594,-0.99994 -0.99994,-0.99994 z m 1.35185,1.49965 c 0.18809,0 0.3762499,0.0724 0.5203801,0.21653 l 2.12804,2.12803 2.1280299,-2.12803 c 0.28827,-0.28827 0.7525,-0.28828 1.04077,0 l 0.11472,0.11524 c 0.28828,0.28827 0.28827,0.75197 0,1.04024 l -2.12804,2.12804 2.12804,2.12803 c 0.28828,0.28827 0.28828,0.75249 0,1.04076 l -0.11472,0.11524 c -0.28827,0.28827 -0.75249,0.28827 -1.04077,0 l -2.1280299,-2.12803 -2.12804,2.12803 c -0.2882601,0.28827 -0.7525001,0.28827 -1.0407601,0 l -0.11524,-0.11524 c -0.28827,-0.28827 -0.28827,-0.75249 0,-1.04076 L 3.8442601,291.99975 1.71622,289.87171 c -0.28827,-0.28827 -0.28827,-0.75197 0,-1.04024 l 0.11524,-0.11524 c 0.14413,-0.14414 0.33229,-0.21653 0.52038,-0.21653 z"
       style="display:inline;opacity:1;vector-effect:none;fill:#fdfdfd;fill-opacity:1;fill-rule:nonzero;stroke:none;stroke-width:0.5;stroke-linecap:butt;stroke-linejoin:round;stroke-miterlimit:4;stroke-dasharray:none;stroke-dashoffset:0;stroke-opacity:1;paint-order:stroke fill markers" />
  </g>
</svg>
