<?xml version="1.0" encoding="UTF-8" standalone="no"?>
<svg
   xmlns:osb="http://www.openswatchbook.org/uri/2009/osb"
   xmlns:dc="http://purl.org/dc/elements/1.1/"
   xmlns:cc="http://creativecommons.org/ns#"
   xmlns:rdf="http://www.w3.org/1999/02/22-rdf-syntax-ns#"
   xmlns:svg="http://www.w3.org/2000/svg"
   xmlns="http://www.w3.org/2000/svg"
   id="svg6268"
   version="1.1"
   viewBox="0 0 10 10"
   height="10mm"
   width="10mm">
  <defs
     id="defs6262">
    <linearGradient
       gradientTransform="matrix(0.00396449,0,0,0.00459936,-56.297903,355.60367)"
       osb:paint="solid"
       id="linearGradient4909">
      <stop
         id="stop4907"
         offset="0"
         style="stop-color:#000000;stop-opacity:1;" />
    </linearGradient>
  </defs>
  <metadata
     id="metadata6265">
    <rdf:RDF>
      <cc:Work
         rdf:about="">
        <dc:format>image/svg+xml</dc:format>
        <dc:type
           rdf:resource="http://purl.org/dc/dcmitype/StillImage" />
        <dc:title></dc:title>
      </cc:Work>
    </rdf:RDF>
  </metadata>
  <g
     transform="translate(0,-287)"
     id="layer1">
    <path
       d="m 2.8278594,290.18397 a 1.301663,1.301663 0 0 1 0.83572,1.64019 1.301663,1.301663 0 0 1 -1.6401901,0.83572 1.301663,1.301663 0 0 1 -0.83573,-1.64019 1.301663,1.301663 0 0 1 1.6402001,-0.83572 z m -0.47199,3.49916 a 1.301663,1.301663 0 0 1 1.8181699,-0.28797 1.301663,1.301663 0 0 1 0.2879601,1.81817 1.301663,1.301663 0 0 1 -1.81816,0.28797 1.301663,1.301663 0 0 1 -0.28797,-1.81817 z m 3.1820499,1.53019 a 1.301663,1.301663 0 0 1 0.2879701,-1.81816 1.301663,1.301663 0 0 1 1.8181597,0.28797 1.301663,1.301663 0 0 1 -0.2879698,1.81816 1.301663,1.301663 0 0 1 -1.81816,-0.28797 z m 2.4385898,-2.55345 a 1.301663,1.301663 0 0 1 -1.6401696,-0.83572 1.301663,1.301663 0 0 1 0.83571,-1.64019 1.301663,1.301663 0 0 1 1.6401996,0.83572 1.301663,1.301663 0 0 1 -0.83574,1.64019 z m -1.6748896,-3.10832 a 1.301663,1.301663 0 0 1 -1.30165,1.30167 1.301663,1.301663 0 0 1 -1.3016701,-1.30166 1.301663,1.301663 0 0 1 1.3016701,-1.30167 1.301663,1.301663 0 0 1 1.30165,1.30166 z"
       style="display:inline;opacity:1;vector-effect:none;fill:#fdfdfd;fill-opacity:1;fill-rule:nonzero;stroke:none;stroke-width:0.10000002;stroke-linecap:butt;stroke-linejoin:round;stroke-miterlimit:4;stroke-dasharray:none;stroke-dashoffset:0;stroke-opacity:1;paint-order:stroke fill markers"
       id="circle5796-78" />
  </g>
</svg>
