<?xml version="1.0" encoding="UTF-8" standalone="no"?>
<svg
   xmlns:osb="http://www.openswatchbook.org/uri/2009/osb"
   xmlns:dc="http://purl.org/dc/elements/1.1/"
   xmlns:cc="http://creativecommons.org/ns#"
   xmlns:rdf="http://www.w3.org/1999/02/22-rdf-syntax-ns#"
   xmlns:svg="http://www.w3.org/2000/svg"
   xmlns="http://www.w3.org/2000/svg"
   id="svg5589"
   version="1.1"
   viewBox="0 0 15 15"
   height="15mm"
   width="15mm">
  <defs
     id="defs5583">
    <linearGradient
       gradientTransform="matrix(0,0,0,0,-16.25378,374.76952)"
       osb:paint="solid"
       id="linearGradient4935">
      <stop
         id="stop4933"
         offset="0"
         style="stop-color:#fdfdfd;stop-opacity:1;" />
    </linearGradient>
  </defs>
  <metadata
     id="metadata5586">
    <rdf:RDF>
      <cc:Work
         rdf:about="">
        <dc:format>image/svg+xml</dc:format>
        <dc:type
           rdf:resource="http://purl.org/dc/dcmitype/StillImage" />
        <dc:title></dc:title>
      </cc:Work>
    </rdf:RDF>
  </metadata>
  <g
     transform="translate(0,-282)"
     id="layer1">
    <path
       id="rect5473-0"
       d="M 0.24999999,282.25011 V 296.75 H 14.74988 v -14.49989 z m 7.24916011,0.99994 h 0.002 a 1.4705732,1.4705732 0 0 1 1.47071,1.47071 1.4705732,1.4705732 0 0 1 -0.017,0.1974 l -0.47491,6.20376 a 0.98038216,0.98038216 0 0 1 -0.9803,0.98082 0.98038216,0.98038216 0 0 1 -0.9803,-0.98082 l -0.475961,-6.20996 a 1.4705732,1.4705732 0 0 1 -0.015,-0.1912 1.4705732,1.4705732 0 0 1 1.47071,-1.47071 z m 0,10.049 a 1.2254776,1.2254776 0 0 1 1.22525,1.22576 1.2254776,1.2254776 0 0 1 -1.22525,1.22525 1.2254776,1.2254776 0 0 1 -1.22524,-1.22525 1.2254776,1.2254776 0 0 1 1.22524,-1.22576 z"
       style="display:inline;opacity:1;vector-effect:none;fill:#ff4141;fill-opacity:1;fill-rule:nonzero;stroke:#ff4141;stroke-width:0.49999997;stroke-linecap:round;stroke-linejoin:round;stroke-miterlimit:4;stroke-dasharray:none;stroke-dashoffset:0;stroke-opacity:1;paint-order:stroke fill markers" />
  </g>
</svg>
