<?xml version="1.0" encoding="UTF-8" standalone="no"?>
<svg
   xmlns:osb="http://www.openswatchbook.org/uri/2009/osb"
   xmlns:dc="http://purl.org/dc/elements/1.1/"
   xmlns:cc="http://creativecommons.org/ns#"
   xmlns:rdf="http://www.w3.org/1999/02/22-rdf-syntax-ns#"
   xmlns:svg="http://www.w3.org/2000/svg"
   xmlns="http://www.w3.org/2000/svg"
   width="15mm"
   height="15mm"
   viewBox="0 0 15 15"
   version="1.1"
   id="svg5589">
  <defs
     id="defs5583">
    <linearGradient
       id="linearGradient4935"
       osb:paint="solid"
       gradientTransform="matrix(0,0,0,0,-4.3004792,381.15765)">
      <stop
         style="stop-color:#fdfdfd;stop-opacity:1;"
         offset="0"
         id="stop4933" />
    </linearGradient>
    <linearGradient
       gradientUnits="userSpaceOnUse"
       y2="20.292036"
       x2="192.38943"
       y1="20.292036"
       x1="177.28934"
       id="linearGradient5618-17"
       gradientTransform="matrix(0.99999332,0,0,0.99999212,0.05130503,-0.04983463)">
      <stop
         style="stop-color:#fdfdfd;stop-opacity:1;"
         offset="0"
         id="stop5616-0" />
    </linearGradient>
  </defs>
  <metadata
     id="metadata5586">
    <rdf:RDF>
      <cc:Work
         rdf:about="">
        <dc:format>image/svg+xml</dc:format>
        <dc:type
           rdf:resource="http://purl.org/dc/dcmitype/StillImage" />
        <dc:title></dc:title>
      </cc:Work>
    </rdf:RDF>
  </metadata>
  <g
     style="fill:#000000;fill-opacity:1"
     id="layer1"
     transform="translate(0,-282)">
    <path
       style="display:inline;opacity:0.3;vector-effect:none;fill:#fdfdfd;fill-opacity:1;fill-rule:nonzero;stroke:none;stroke-width:0.25;stroke-linecap:butt;stroke-linejoin:round;stroke-miterlimit:4;stroke-dasharray:none;stroke-dashoffset:0;stroke-opacity:1;paint-order:stroke fill markers"
       d="M 0,281.99988 V 297 h 15.00011 v -15.00012 z m 5.7428003,1.8464 c 0.28219,-0.004 0.51196,0.22579 0.50746,0.50798 v 1.59938 c 0.0122,0.67867 -1.01208,0.67867 -0.99994,0 v -1.59938 c -0.004,-0.27632 0.21616,-0.50378 0.49248,-0.50798 z m 3.49953,0 c 0.2824,-0.005 0.51248,0.22558 0.50798,0.50798 v 1.59938 c 0.0122,0.67877 -1.01219,0.67877 -0.99994,0 v -1.59938 c -0.004,-0.27613 0.21584,-0.50358 0.49196,-0.50798 z m -4.9919501,1.3069 h 0.5002301 v 0.80046 c -0.0244,1.35742 2.02428,1.35742 1.99988,0 v -0.80046 h 1.49965 v 0.80046 c -0.0243,1.35732 2.0241697,1.35732 1.9998797,0 v -0.80046 h 0.50022 c 0.554,-1.8e-4 0.99993,0.44593 0.99994,0.99993 v 2.0004 H 3.2504401 v -2.0004 c 0,-0.554 0.4459399,-0.99993 0.9999401,-0.99993 z m -0.9999401,3.50004 H 11.75018 v 5.49992 c 0,0.554 -0.44594,0.99994 -0.99994,0.99994 H 4.2503802 c -0.5540002,0 -0.9999303,-0.44594 -0.9999401,-0.99994 z m 0.4997098,0.50023 v 1.49965 h 1.5001704 v -1.49965 z m 2.0004004,0 v 1.49965 h 1.49965 v -1.49965 z m 1.99988,0 v 1.49965 h 1.50017 v -1.49965 z m 1.99988,0 v 1.49965 H 11.25047 v -1.49965 z m -6.0001604,1.99988 v 1.50016 h 1.5001704 v -1.50016 z m 2.0004004,0 v 1.50016 h 1.49965 v -1.50016 z m 1.99988,0 v 1.50016 h 1.50017 v -1.50016 z m 1.99988,0 v 1.50016 H 11.25047 v -1.50016 z m -6.0001604,1.99987 v 1.50017 h 1.5001704 v -1.50017 z m 2.0004004,0 v 1.50017 h 1.49965 v -1.50017 z m 1.99988,0 v 1.50017 h 1.50017 v -1.50017 z m 1.99988,0 v 1.50017 H 11.25047 v -1.50017 z"
       id="rect2012" />
  </g>
</svg>
