<?xml version="1.0" encoding="UTF-8" standalone="no"?>
<svg
   xmlns:osb="http://www.openswatchbook.org/uri/2009/osb"
   xmlns:dc="http://purl.org/dc/elements/1.1/"
   xmlns:cc="http://creativecommons.org/ns#"
   xmlns:rdf="http://www.w3.org/1999/02/22-rdf-syntax-ns#"
   xmlns:svg="http://www.w3.org/2000/svg"
   xmlns="http://www.w3.org/2000/svg"
   id="svg5589"
   version="1.1"
   viewBox="0 0 15 15"
   height="15mm"
   width="15mm">
  <defs
     id="defs5583">
    <linearGradient
       gradientTransform="matrix(0,0,0,0,-16.25378,374.76952)"
       osb:paint="solid"
       id="linearGradient4935">
      <stop
         id="stop4933"
         offset="0"
         style="stop-color:#fdfdfd;stop-opacity:1;" />
    </linearGradient>
  </defs>
  <metadata
     id="metadata5586">
    <rdf:RDF>
      <cc:Work
         rdf:about="">
        <dc:format>image/svg+xml</dc:format>
        <dc:type
           rdf:resource="http://purl.org/dc/dcmitype/StillImage" />
        <dc:title></dc:title>
      </cc:Work>
    </rdf:RDF>
  </metadata>
  <g
     transform="translate(0,-282)"
     id="layer1">
    <path
       id="rect5011"
       d="M 1.25005,281.99989 C 0.55755004,281.99989 0,282.55744 0,283.24994 v 12.50001 C 0,296.44245 0.55755004,297 1.25005,297 h 12.500011 c 0.6925,0 1.25005,-0.55755 1.25005,-1.25005 v -12.50001 c 0,-0.6925 -0.55755,-1.25005 -1.25005,-1.25005 z m 6.2513,1.49861 c 1.539,3e-4 3.07797,0.58511 4.246761,1.7539 2.33759,2.3376 2.33761,6.15493 0,8.4925 -2.3375809,2.33721 -6.155951,2.33862 -8.4935309,0.001 -2.33750004,-2.3375 -2.33732005,-6.15696 0,-8.49457 1.1687899,-1.169 2.7077601,-1.75318 4.2467699,-1.75288 z m -0.1999898,2.05621 c -0.9525402,0.0147 -1.8915301,0.37275 -2.6308503,1.11207 -1.3143597,1.31437 -1.4246598,3.26099 -0.54312,4.79144 l 5.3335301,-5.333 c -0.6695699,-0.38565 -1.4187,-0.58194 -2.1595598,-0.57051 z m 3.5739398,1.98489 -5.3335299,5.33301 c 1.5304501,0.8817 3.4774799,0.77187 4.7919599,-0.54261 1.314441,-1.31442 1.423221,-3.25997 0.54157,-4.7904 z"
       style="display:inline;opacity:1;vector-effect:none;fill:url(#linearGradient4935);fill-opacity:1;stroke:none;stroke-width:0.5;stroke-linecap:round;stroke-linejoin:round;stroke-miterlimit:4;stroke-dasharray:none;stroke-dashoffset:0;stroke-opacity:1;paint-order:stroke fill markers" />
  </g>
</svg>
