<?xml version="1.0" encoding="iso-8859-1"?>
<!-- Generator: Adobe Illustrator 19.0.0, SVG Export Plug-In . SVG Version: 6.00 Build 0)  -->
<svg version="1.1" id="Capa_1" xmlns="http://www.w3.org/2000/svg" xmlns:xlink="http://www.w3.org/1999/xlink" x="0px" y="0px"
	 viewBox="0 0 512 512" style="enable-background:new 0 0 512 512;" xml:space="preserve">
<g>
	<g>
		<path d="M503.094,131.359l-156-104c-6.137-4.09-14.027-4.473-20.531-0.992C320.06,29.846,316,36.624,316,44v84H180
			C80.748,128,0,208.747,0,308s80.748,180,180,180c11.046,0,20-8.954,20-20c0-11.046-8.954-20-20-20c-77.196,0-140-62.804-140-140
			s62.804-140,140-140h136v84c0,7.376,4.06,14.153,10.563,17.633c6.488,3.472,14.378,3.109,20.531-0.992l156-104
			c5.564-3.71,8.906-9.954,8.906-16.641S508.658,135.068,503.094,131.359z M356,214.63V81.37L455.944,148L356,214.63z"/>
	</g>
</g>
<g>
</g>
<g>
</g>
<g>
</g>
<g>
</g>
<g>
</g>
<g>
</g>
<g>
</g>
<g>
</g>
<g>
</g>
<g>
</g>
<g>
</g>
<g>
</g>
<g>
</g>
<g>
</g>
<g>
</g>
</svg>
